<mxfile host="65bd71144e">
    <diagram id="A2ku0yjqqK3kB1jhPvBD" name="Page-1">
        <mxGraphModel dx="953" dy="449" grid="0" gridSize="10" guides="1" tooltips="1" connect="1" arrows="1" fold="1" page="1" pageScale="1" pageWidth="827" pageHeight="1169" math="0" shadow="0">
            <root>
                <mxCell id="0"/>
                <mxCell id="1" parent="0"/>
                <mxCell id="2" value="Bilde av verdenskart med data fyllt ut / Befolkningsveksten til alle&lt;br&gt;kontinentene" style="rounded=0;whiteSpace=wrap;html=1;" parent="1" vertex="1">
                    <mxGeometry x="230" y="184" width="367" height="267" as="geometry"/>
                </mxCell>
                <mxCell id="3" value="HEADER" style="rounded=0;whiteSpace=wrap;html=1;" parent="1" vertex="1">
                    <mxGeometry x="44" y="38" width="247" height="58" as="geometry"/>
                </mxCell>
                <mxCell id="4" value="TEKST SOM FORKLARER HVA BRUKEREN KAN GJLÃ˜RE" style="rounded=0;whiteSpace=wrap;html=1;" parent="1" vertex="1">
                    <mxGeometry x="44" y="110" width="402" height="60" as="geometry"/>
                </mxCell>
                <mxCell id="5" value="INPUT&lt;br&gt;KONTINENT" style="rounded=0;whiteSpace=wrap;html=1;" parent="1" vertex="1">
                    <mxGeometry x="308" y="36" width="120" height="60" as="geometry"/>
                </mxCell>
                <mxCell id="6" value="INPUT&lt;br&gt;LAND" style="rounded=0;whiteSpace=wrap;html=1;" parent="1" vertex="1">
                    <mxGeometry x="446" y="37" width="120" height="60" as="geometry"/>
                </mxCell>
                <mxCell id="7" value="KNAPP" style="rounded=0;whiteSpace=wrap;html=1;" parent="1" vertex="1">
                    <mxGeometry x="589" y="37" width="120" height="60" as="geometry"/>
                </mxCell>
            </root>
        </mxGraphModel>
    </diagram>
</mxfile>